<svg width="171" height="41" viewBox="0 0 171 41" fill="none" xmlns="http://www.w3.org/2000/svg">
<g clip-path="url(#clip0_1_104)">
<path d="M37.1449 10.1787C35.9201 10.707 34.5873 11.0873 33.2144 11.2354C34.6398 10.3886 35.7072 9.05077 36.2163 7.47295C34.8788 8.26862 33.4135 8.82656 31.8855 9.12202C31.2469 8.43928 30.4745 7.89538 29.6165 7.52421C28.7584 7.15304 27.8332 6.96255 26.8983 6.96462C23.1158 6.96462 20.0739 10.0306 20.0739 13.793C20.0739 14.3214 20.1379 14.8497 20.242 15.3581C14.5783 15.0619 9.52702 12.3561 6.16884 8.21343C5.55695 9.25857 5.23629 10.4486 5.24024 11.6597C5.24024 14.0292 6.44502 16.1186 8.28221 17.3474C7.19953 17.3047 6.1422 17.0071 5.19621 16.4788V16.5628C5.19621 19.881 7.54173 22.6308 10.6678 23.2632C10.0808 23.4157 9.47702 23.4936 8.8706 23.4953C8.42631 23.4953 8.00604 23.4513 7.58176 23.3913C8.44632 26.097 10.964 28.0623 13.9619 28.1263C11.6164 29.9635 8.67847 31.0442 5.4884 31.0442C4.91603 31.0442 4.38769 31.0242 3.83933 30.9602C6.8653 32.9014 10.4556 34.0222 14.3221 34.0222C26.8743 34.0222 33.7427 23.6234 33.7427 14.5976C33.7427 14.3014 33.7427 14.0052 33.7227 13.709C35.0516 12.7364 36.2163 11.5316 37.1449 10.1787Z" fill="#FA4A0C"/>
<path d="M100.21 4.48291H70.7512C70.0427 4.48291 69.4704 5.05528 69.4704 5.76374V35.2229C69.4704 35.9313 70.0427 36.5037 70.7512 36.5037H100.21C100.919 36.5037 101.491 35.9313 101.491 35.2229V5.76374C101.491 5.05528 100.919 4.48291 100.21 4.48291ZM96.5119 13.829H93.9543C91.949 13.829 91.5607 14.7816 91.5607 16.1825V19.2685H96.3478L95.7234 24.0996H91.5607V36.5037H86.5695V24.1036H82.3948V19.2685H86.5695V15.7062C86.5695 11.5715 89.0951 9.31805 92.7855 9.31805C94.5546 9.31805 96.0716 9.45013 96.5159 9.51017V13.829H96.5119Z" fill="#FA4A0C"/>
</g>
<defs>
<clipPath id="clip0_1_104">
<rect width="170.96" height="40.9866" fill="white"/>
</clipPath>
</defs>
</svg>
